<svg width="189" height="100" viewBox="0 0 189 100" fill="none" xmlns="http://www.w3.org/2000/svg">
<mask id="mask0_344_114" style="mask-type:luminance" maskUnits="userSpaceOnUse" x="0" y="0" width="189" height="100">
<path d="M188.163 0H0.691406V100H188.163V0Z" fill="white"/>
</mask>
<g mask="url(#mask0_344_114)">
<path d="M188.163 0H0.691406V100H188.163V0Z" fill="#3EBA4E"/>
<path d="M48.874 104.698C68.0183 104.634 85.0287 87.6054 124.356 86.9839C163.683 86.3625 179.414 44.8268 199.838 43.9839" stroke="#007A13" stroke-opacity="0.58" stroke-width="2"/>
<path d="M76.25 102.963C88.2065 101.023 82.7386 66.4179 115.325 64.3518C147.912 62.2857 172.627 24.9964 193.476 24.3518" stroke="#007A13" stroke-opacity="0.58" stroke-width="2"/>
<path d="M122.33 116.691C132.548 115.163 128.07 86.1679 156.091 84.5054C184.114 82.8429 205.637 51.0375 223.616 50.5054" stroke="#007A13" stroke-opacity="0.58" stroke-width="2"/>
<path d="M59.418 115.198C81.2597 114.111 96.4033 67.8964 139.269 66.3839C182.135 64.8714 198.052 29.8786 219.12 29.3839" stroke="#007A13" stroke-opacity="0.58" stroke-width="2"/>
<path d="M91.4395 101.798C110.439 97.1036 119.209 32.5214 149.531 32.0107C179.852 31.5 192.556 53.8107 207.621 54.0107" stroke="#007A13" stroke-opacity="0.58" stroke-width="2"/>
</g>
</svg>
