<svg width="270" height="116" viewBox="0 0 270 116" fill="none" xmlns="http://www.w3.org/2000/svg">
<path d="M13.5231 44.1832C18.0942 57.8478 21.5595 66.8015 24.2212 81.7609C24.3344 82.3954 25.544 82.9406 26.9867 83.0148C28.4214 83.1117 29.9283 82.7277 30.4537 82.1112C36.1804 75.389 36.823 68.3263 37.4878 61.4353C38.1293 54.5365 38.8112 47.8092 43.9792 41.7011C41.5236 41.632 39.0679 41.5629 36.6116 41.4938C36.8546 41.9903 37.1734 43.0266 37.4937 44.3649C37.8189 45.7109 38.1638 47.3793 38.5296 49.2498C39.2615 52.9884 40.0775 57.5305 41.0067 61.9423C41.9375 66.3537 42.9763 70.6272 44.177 73.8868C44.7828 75.5218 45.4142 76.8935 46.1688 77.9758C46.5571 78.5239 46.9532 78.9943 47.5619 79.4577C47.8763 79.6932 48.2432 79.931 48.8425 80.1821C49.431 80.4222 50.3516 80.7064 51.6661 80.801C52.3422 80.8497 53.0981 80.8218 53.7127 80.7348C54.3346 80.6502 54.8116 80.522 55.1582 80.4019C55.8479 80.1537 56.1141 79.9542 56.3227 79.8034C56.6996 79.4989 56.805 79.3167 56.9319 79.1248C57.1529 78.7594 57.2881 78.3882 57.4317 77.9224C57.7093 77.0037 57.9582 75.7602 58.2203 74.2348C58.7414 71.1898 59.2982 67.0521 60.0428 62.6046C60.7867 58.1624 61.7188 53.4132 62.9816 49.1884C63.6116 47.0773 64.3258 45.0967 65.1298 43.3643C65.9304 41.632 66.8333 40.1427 67.7731 39.045C64.8369 38.9451 61.9 38.8454 58.9636 38.743C62.0869 45.7314 61.6992 53.5795 62.3776 61.4585C63.028 68.7387 64.5784 76.0751 71.2247 82.8176C72.0168 83.6209 74.0211 84.1174 75.9603 84.0176C77.9057 83.9434 79.6269 83.2781 80.0147 82.4209C81.6591 78.7901 82.957 74.1582 84.0381 69.2195C85.1167 64.2831 85.9702 59.0452 86.6843 54.2551C87.3985 49.4648 87.9744 45.1172 88.4913 41.9903C88.7486 40.4268 88.9946 39.1652 89.2222 38.3412C89.3324 37.9318 89.4479 37.6248 89.5092 37.5122C89.5164 37.4994 89.5218 37.4891 89.5253 37.484C89.5265 37.4815 89.5284 37.4789 89.5284 37.4789C89.5284 37.4789 89.5277 37.4789 89.5265 37.4815C89.5193 37.4891 89.5015 37.5199 89.4289 37.5915C89.3467 37.6657 89.2437 37.7834 88.838 37.9983C88.6283 38.1033 88.3288 38.2389 87.8255 38.377C87.3329 38.5127 86.5873 38.6457 85.7349 38.6662C84.7308 38.6944 83.8373 38.5639 83.2804 38.4282C82.7074 38.29 82.3834 38.1544 82.1529 38.0495C81.7109 37.8346 81.5883 37.7169 81.4817 37.635C81.3007 37.4738 81.2905 37.4354 81.2733 37.4175C81.2703 37.4149 81.2696 37.4149 81.2696 37.4149C81.2696 37.4149 81.2714 37.4149 81.2738 37.42C81.278 37.4277 81.2857 37.4405 81.2958 37.4559C81.3155 37.4917 81.3435 37.5454 81.3756 37.6094C81.5055 37.873 81.6943 38.3259 81.9146 38.9093C82.3579 40.0813 82.9379 41.7983 83.602 43.8787C84.932 48.0446 86.6051 53.6793 88.2626 59.5034C89.9203 65.3271 91.563 71.3458 92.8333 76.2793C93.4682 78.7466 94.0097 80.9442 94.4129 82.7074C94.8161 84.4654 95.0805 85.8087 95.1573 86.4971C95.2122 86.9884 95.7018 87.4315 96.4666 87.7488C97.2265 88.0684 98.2683 88.2603 99.3319 88.2783C100.395 88.2986 101.47 88.1403 102.286 87.8485C103.107 87.5568 103.678 87.1317 103.822 86.6508C108.676 70.394 108.871 52.4434 111.734 35.9922C109.023 36.0869 106.312 36.1815 103.601 36.2762C112.978 52.6455 113.644 70.7316 115.935 86.1161C115.998 86.5331 116.405 86.9066 117.035 87.1833C117.66 87.4594 118.516 87.6409 119.41 87.6821C120.304 87.7233 121.23 87.6281 121.981 87.4159C122.735 87.2036 123.319 86.8782 123.585 86.4844C128.734 78.8411 128.924 69.143 128.539 59.4929C128.127 49.8588 127.095 40.2706 129.307 33.185C126.894 33.2643 124.481 33.3437 122.068 33.4256C131.621 47.2284 135.325 62.3976 142.174 76.0183C142.372 76.4098 142.904 76.7404 143.617 76.9579C144.329 77.1754 145.228 77.2751 146.094 77.234C146.964 77.1957 147.793 77.0165 148.379 76.7375C148.97 76.4614 149.326 76.0902 149.326 75.6883C149.314 68.8512 148.299 57.9936 149.022 47.9525C149.522 41.0179 151.209 34.4543 154.348 30.1272C151.74 30.2091 149.132 30.2909 146.524 30.3754C151.146 35.0633 153.45 40.0275 154.687 45.3398C155.928 50.6521 156.08 56.3124 156.496 62.3436C156.852 67.5282 157.457 72.986 158.994 78.6822C159.157 79.286 159.774 79.7778 160.677 80.1282C161.577 80.4814 162.774 80.6913 163.991 80.7116C165.21 80.7319 166.439 80.5632 167.399 80.2384C168.364 79.9182 169.066 79.4501 169.297 78.938C173.251 70.1997 176.299 58.3033 180.506 48.1342C181.9 44.7513 183.43 41.568 185.019 38.7711C182.239 38.7993 179.46 38.8275 176.679 38.853C182.13 48.2493 180.68 58.0296 181.389 68.0705C181.684 72.1468 182.376 76.259 183.912 80.3607C184.148 80.9877 184.843 81.4819 185.823 81.8194C186.797 82.1599 188.063 82.3414 189.319 82.3235C190.575 82.3055 191.809 82.088 192.729 81.7197C193.653 81.3537 194.27 80.8421 194.382 80.3225C195.133 76.8372 195.784 72.3132 196.533 67.4001C197.284 62.4898 198.175 57.1927 199.467 52.2028C201.224 45.1837 203.249 38.7149 205.436 34.8407C202.859 34.7767 200.282 34.7153 197.705 34.6538C201.65 49.1475 203.588 65.3324 203.946 79.6955C203.958 80.2099 204.458 80.696 205.269 81.0469C206.073 81.4024 207.198 81.6147 208.348 81.6356C209.498 81.6582 210.662 81.4871 211.536 81.1646C212.414 80.8445 213.008 80.3787 213.131 79.8364C213.655 77.5257 215.781 67.7585 217.905 58.7842C218.967 54.3011 220.027 50.015 220.892 46.9827C221.323 45.4704 221.712 44.2625 222.003 43.5537C222.075 43.3772 222.14 43.2339 222.19 43.1366C222.214 43.088 222.236 43.0522 222.248 43.0318C222.255 43.0215 222.259 43.0164 222.259 43.0164C222.259 43.0164 222.256 43.0214 222.246 43.0343C222.224 43.0624 222.19 43.1136 222.04 43.2467C221.96 43.3132 221.851 43.4002 221.635 43.5281C221.411 43.6535 221.095 43.8301 220.397 44.0374C220.047 44.1397 219.59 44.2446 219.009 44.3188C218.435 44.393 217.733 44.4314 217.044 44.3981C216.352 44.37 215.698 44.2753 215.186 44.1602C214.669 44.0425 214.284 43.9094 213.998 43.7892C213.427 43.546 213.196 43.3618 213.033 43.2287C212.875 43.0931 212.803 43.0036 212.752 42.9371C212.748 42.9319 212.745 42.9293 212.745 42.9293C212.748 42.9344 212.755 42.9447 212.763 42.9575C212.779 42.9857 212.805 43.0317 212.834 43.0855C212.895 43.1981 212.972 43.3516 213.062 43.5409C213.243 43.9222 213.47 44.4366 213.729 45.0584C214.25 46.2969 214.902 47.9602 215.618 49.8743C217.049 53.7024 218.735 58.5516 220.146 63.1394C221.185 66.5248 222.072 69.7775 222.579 72.3544C222.832 73.6438 222.989 74.7649 223.028 75.6268C223.047 76.0571 223.036 76.4202 223.002 76.694C222.971 76.9654 222.901 77.1522 222.892 77.1626C226.313 77.3517 229.732 77.5408 233.152 77.7304C233.505 70.4706 235.76 63.1678 237.916 55.7955C239.35 50.885 240.99 45.977 242.702 41.0664C239.639 41.0409 236.575 41.0178 233.512 40.9948C235.408 47.1592 237.358 53.321 239.437 59.4802C242.495 68.5386 245.512 77.6382 249.599 86.6764C250.333 88.3015 257.103 87.7714 256.457 86.1416C252.898 77.1597 250.387 68.0908 247.779 58.9993C246.013 52.8425 244.357 46.6782 242.723 40.5086C242.595 40.025 242.039 39.5848 241.225 39.2701C240.413 38.9554 239.336 38.7711 238.243 38.7583C237.149 38.7455 236.049 38.9067 235.201 39.201C234.348 39.4978 233.738 39.9226 233.537 40.4396C231.611 45.3552 229.77 50.2862 228.155 55.2377C225.765 62.5791 223.248 70.0228 222.755 77.6202C222.718 78.1939 223.201 78.7333 224.031 79.1404C224.856 79.5499 226.039 79.8237 227.289 79.8904C228.539 79.9617 229.844 79.826 230.882 79.5192C231.926 79.217 232.712 78.7466 233.014 78.1886C233.242 77.7664 233.333 77.3801 233.396 76.9498C233.456 76.5252 233.47 76.0618 233.456 75.5525C233.423 74.5393 233.264 73.3393 233.013 71.9855C232.509 69.2862 231.626 65.9825 230.573 62.5513C229.149 57.8989 227.409 53.0217 225.909 49.1501C225.16 47.2155 224.471 45.5343 223.91 44.2523C223.63 43.61 223.382 43.0701 223.169 42.6377C223.062 42.4227 222.965 42.2333 222.87 42.0671C222.774 41.8956 222.693 41.7574 222.564 41.5808C222.492 41.4861 222.399 41.3761 222.221 41.2226C222.035 41.0716 221.781 40.872 221.188 40.6187C220.89 40.4933 220.494 40.3577 219.965 40.2374C219.441 40.1196 218.774 40.0224 218.072 39.9943C217.37 39.9636 216.656 39.9994 216.069 40.0762C215.476 40.153 215.005 40.2604 214.643 40.3653C213.92 40.5803 213.578 40.7671 213.327 40.9079C213.084 41.0537 212.949 41.1612 212.841 41.2507C212.634 41.4298 212.543 41.5475 212.459 41.6525C212.304 41.8623 212.216 42.026 212.123 42.2103C212.034 42.3945 211.95 42.5916 211.865 42.8091C211.53 43.674 211.163 44.9176 210.755 46.4683C209.941 49.5697 208.987 53.8764 208.054 58.3828C206.188 67.3902 204.405 77.1881 203.963 79.4832C207.025 79.5296 210.087 79.5754 213.149 79.6241C212.285 65.1433 209.758 48.8788 205.515 34.247C205.393 33.8273 204.933 33.464 204.264 33.203C203.599 32.9394 202.717 32.7807 201.816 32.7628C200.914 32.7398 199.997 32.8601 199.272 33.0904C198.545 33.3207 197.998 33.6611 197.782 34.0602C195.506 38.2645 193.598 44.7692 191.824 51.8471C190.607 56.8728 189.19 62.1621 187.788 67.0445C186.385 71.927 185.038 76.4098 183.901 79.7906C187.391 79.7778 190.882 79.7645 194.372 79.7546C193.398 75.8675 193.077 71.9217 192.788 67.9168C192.059 58.0754 191.754 47.8476 184.972 37.8858C184.662 37.4328 184.067 37.0925 183.296 36.8596C182.528 36.6268 181.579 36.5065 180.639 36.527C179.701 36.5423 178.779 36.6958 178.061 36.9568C177.34 37.2153 176.814 37.5787 176.631 37.9702C175.271 40.8746 173.958 44.1218 172.573 47.5353C168.43 57.7787 163.682 69.5855 159.085 77.999C162.52 78.0837 165.954 78.1707 169.389 78.2548C168.415 72.71 168.152 67.367 167.728 62.1876C167.239 56.1691 166.605 50.3732 164.731 44.8102C162.856 39.2497 159.723 33.922 154.138 28.8963C153.34 28.1798 151.609 27.7705 149.931 27.8497C148.249 27.9086 146.732 28.4511 146.312 29.1446C143.311 34.1063 142.333 40.7978 141.83 47.8578C141.102 58.0423 142.105 68.9585 142.093 75.6883C144.477 75.581 146.861 75.4708 149.244 75.3611C142.524 61.9753 138.897 46.7191 129.188 32.5197C128.698 31.8033 127.021 31.3145 125.346 31.3811C123.668 31.4246 122.182 32.0157 121.948 32.7603C119.577 40.3116 120.616 49.9612 120.936 59.5469C121.284 69.1169 120.87 78.6207 116.085 85.5401C118.635 85.6631 121.185 85.7861 123.735 85.9061C121.564 70.6347 121.131 52.3589 111.629 35.4369C111.388 35.0096 110.796 34.6487 110.011 34.4108C109.229 34.1702 108.246 34.055 107.288 34.0883C106.329 34.119 105.401 34.3007 104.718 34.5924C104.03 34.8816 103.577 35.2757 103.496 35.7209C100.464 52.3359 100.09 70.2432 95.1889 86.1671C98.0771 86.2182 100.965 86.2698 103.853 86.3208C103.765 85.4891 103.504 84.1377 103.11 82.3467C102.716 80.5579 102.189 78.3499 101.57 75.8704C100.333 70.9137 98.7328 64.8846 97.1121 59.0428C95.4916 53.2033 93.8524 47.5558 92.5379 43.3567C91.8803 41.2584 91.3056 39.5235 90.8481 38.2901C90.6182 37.6734 90.4211 37.1872 90.2389 36.811C90.1441 36.6191 90.0638 36.463 89.9309 36.2737C89.8553 36.1738 89.791 36.074 89.5623 35.8745C89.4312 35.7695 89.2852 35.6391 88.8219 35.4139C88.5807 35.3038 88.2466 35.1631 87.6628 35.0224C87.0958 34.8842 86.1929 34.751 85.1792 34.7818C84.2959 34.8023 83.5193 34.9405 82.9957 35.0838C82.4614 35.2297 82.1309 35.378 81.8902 35.5009C81.4232 35.7465 81.2583 35.9103 81.1148 36.046C80.858 36.3095 80.7681 36.4783 80.6668 36.6626C80.4828 37.0183 80.3547 37.3996 80.2184 37.8781C79.9534 38.8249 79.6984 40.1171 79.4269 41.7087C78.8848 44.8843 78.2887 49.2243 77.5548 53.9992C76.8222 58.7714 75.9526 63.9763 74.8716 68.846C73.793 73.7157 72.4939 78.26 70.9436 81.6611C73.8734 81.5306 76.8031 81.3972 79.7336 81.2667C73.8365 75.2997 72.2504 68.4493 71.6357 61.3101C70.9448 53.5872 71.3797 45.5625 67.9686 37.9983C67.576 37.1257 65.8017 36.4579 63.8244 36.4067C61.8523 36.3248 59.8575 36.8673 59.1589 37.6939C57.9797 39.091 57.0196 40.7466 56.1731 42.6069C55.3298 44.4647 54.6121 46.5272 53.9873 48.7023C52.7383 53.0524 51.8622 57.8631 51.1808 62.3436C50.5 66.8247 50.0146 70.9798 49.5565 73.9767C49.329 75.4708 49.1038 76.6835 48.8835 77.459C48.7781 77.8406 48.6578 78.1219 48.6131 78.1939C48.6084 78.2014 48.6084 78.2037 48.6072 78.2037C48.6084 78.2037 48.6126 78.1962 48.6232 78.1834C48.6465 78.1579 48.6864 78.1092 48.8139 78.0094C48.9526 77.9097 49.1485 77.7507 49.7668 77.528C50.0777 77.4207 50.5191 77.3007 51.1045 77.2189C51.6829 77.1365 52.4024 77.111 53.0421 77.1574C53.9903 77.2264 54.5489 77.4207 54.7801 77.5182C54.9028 77.5692 54.9641 77.6023 54.9939 77.6202C55.0087 77.6284 55.0154 77.633 55.0154 77.633C55.0154 77.633 55.0105 77.6307 55.001 77.6255C54.911 77.5669 54.6257 77.2931 54.3494 76.9039C53.7735 76.1134 53.1386 74.8438 52.5388 73.301C51.329 70.2049 50.2005 65.9773 49.1754 61.6041C48.1486 57.2285 47.2201 52.6993 46.3867 48.9453C45.9698 47.0671 45.5767 45.3833 45.205 44.0015C44.8292 42.612 44.4921 41.5501 44.1157 40.8029C43.75 40.0787 42.2467 39.5363 40.5968 39.503C38.95 39.4493 37.305 39.9099 36.7481 40.5982C31.2529 47.3819 30.8718 54.4367 30.4126 61.3304C29.9777 68.2295 29.4828 74.9667 24.3994 81.1774C26.4768 81.2951 28.5543 81.4129 30.6318 81.5306C27.462 66.4813 23.6482 57.4486 18.6303 43.8532C18.1836 42.6428 13.1174 42.9703 13.5231 44.1832Z" fill="black"/>
</svg>
