<svg width="271" height="205" viewBox="0 0 271 205" fill="none" xmlns="http://www.w3.org/2000/svg">
<path d="M144.304 101.358C141.869 99.9743 139.056 97.3996 136.094 94.4879C133.119 91.5763 129.958 88.328 126.551 85.5406C123.124 82.7586 119.478 80.3804 115.223 79.3495C113.102 78.8417 110.817 78.7071 108.511 79.0957C106.206 79.4791 103.914 80.3702 101.684 81.7845C95.7326 85.5458 91.6759 90.6799 89.1994 96.4254C86.723 102.176 85.8063 108.564 86.1278 114.968C86.4562 121.371 88.0297 127.795 90.6019 133.639C93.1809 139.483 96.752 144.747 101.199 148.835C107.472 154.627 114.915 157.585 122.542 158.155C130.177 158.74 137.778 157.056 144.858 154.207C159.005 148.478 171.387 138.064 178.646 129.433C190.35 115.413 194.694 96.8451 189.577 80.743C186.998 72.6972 181.984 65.242 174.151 59.4602C166.324 53.6784 155.687 49.653 142.429 48.4044C128.508 47.0885 114.094 49.5288 101.096 54.4557C88.0981 59.393 76.4683 66.8378 68.1154 75.7851C58.6065 85.9655 53.3047 98.2076 55.6649 110.782C57.5941 121.05 62.8342 129.81 70.2567 136.654C77.6792 143.503 87.2634 148.436 97.8122 151.129C108.361 153.824 119.881 154.29 131.148 152.239C142.416 150.187 153.409 145.612 162.897 138.343C176.825 127.661 187.415 114.04 191.664 99.5185C195.912 85.0174 193.655 69.511 181.738 55.7559C173.317 45.9745 161.871 39.8767 149.195 36.846C136.505 33.7996 122.652 33.7167 108.895 35.53C81.3665 39.1928 54.0094 50.3629 36.0655 62.258C33.8148 63.7553 31.6325 65.7084 29.4776 68.0139C27.3296 70.3194 25.2294 72.9772 23.2935 75.8577C19.4146 81.6239 16.1719 88.2762 14.7011 94.7574C13.9759 98.0006 13.6887 101.207 14.0581 104.269C14.4343 107.332 15.4672 110.269 17.4923 112.854C19.5035 115.439 22.5683 117.621 26.5155 119.003C30.4628 120.397 35.2172 121.034 40.779 120.915C43.1595 120.868 45.4513 120.278 47.3462 119.325C49.2548 118.372 50.8009 117.103 52.1282 115.651C54.7688 112.745 56.6569 109.056 58.3604 104.767C61.7193 96.2027 64.2024 85.1519 67.5477 73.9769C70.8724 62.8122 75.0728 51.5595 81.4828 42.8815C84.6776 38.54 88.3991 34.8565 92.743 32.0744C97.1075 29.2924 102.06 27.3755 108.046 26.5C117.268 25.1633 125.204 25.4793 131.949 26.9559C138.694 28.4428 144.29 31.09 148.826 34.5923C157.883 41.576 162.644 52.145 162.254 63.2112C161.878 74.2671 156.391 85.6909 145.494 94.3481C134.583 102.995 118.301 109.051 95.4384 109.32C81.6538 109.476 71.4471 108.171 64.4214 105.973C60.9052 104.88 58.1824 103.58 56.1164 102.145C54.0505 100.705 52.6139 99.1402 51.6492 97.415C49.7338 93.9801 49.6585 89.6905 51.5124 84.6859C53.3527 79.7019 57.1084 74.1116 62.3623 68.4178C72.8632 57.0097 89.309 45.1872 107.615 35.9965C125.908 26.7902 146.089 20.2311 163.746 18.9824C175.813 18.1069 193.36 18.1796 208.698 21.0705C216.374 22.5108 223.475 24.6503 229.098 27.5981C234.735 30.5616 238.866 34.2453 241.089 39.0117C243.56 44.3582 242.773 50.2331 239.427 56.2429C236.089 62.2268 230.179 68.2108 222.934 73.3346C215.702 78.4636 207.152 82.7325 198.711 85.4266C190.275 88.1309 181.984 89.2087 175.362 88.3021C171.675 87.8047 168.829 86.8513 166.599 85.6079C164.369 84.3593 162.727 82.8102 161.543 80.9917C159.183 77.3807 158.8 72.5886 160.352 67.8274C161.885 63.0714 165.326 58.4295 170.026 55.1655C174.753 51.8913 180.554 49.9587 187.395 50.1919C195.056 50.4613 203.314 52.5438 211.202 55.9942C219.082 59.4343 226.573 64.2266 232.751 69.7545C238.935 75.2773 243.785 81.5305 246.522 87.8356C249.257 94.151 249.881 100.477 247.814 106.32C245.414 113.186 239.646 120.734 231.609 127.976C223.584 135.225 213.322 142.177 202.131 148.011C190.938 153.85 178.802 158.564 167.091 161.403C155.372 164.258 144.105 165.201 134.672 163.745C130.909 163.17 128.002 162.295 125.812 161.274C123.617 160.248 122.132 159.087 121.099 157.828C120.073 156.564 119.484 155.181 119.286 153.642C119.088 152.109 119.3 150.42 119.915 148.669C121.126 145.167 123.979 141.431 127.851 138.323C131.723 135.209 136.587 132.727 141.614 131.51C146.315 130.345 154.045 129.899 162.439 130.417C169.349 130.827 176.758 131.888 183.509 133.566C190.268 135.235 196.377 137.53 200.694 140.204C202.855 141.535 204.573 142.95 205.771 144.385C206.973 145.825 207.679 147.265 207.918 148.788C208.157 150.317 207.945 151.953 207.076 153.86C206.207 155.762 204.647 157.916 202.165 160.31C194.64 167.589 186.827 172.734 178.981 176.231C171.127 179.717 163.225 181.593 155.222 182.252C139.822 183.489 123.87 179.961 108.566 173.609C96.3345 168.537 84.3219 161.818 73.985 153.984C72.3228 152.72 69.3605 154.601 70.7151 156.062C79.3415 165.372 90.2734 174.101 103.1 180.474C119.081 188.406 137.709 192.918 156.501 191.431C166.235 190.675 175.964 188.24 185.138 183.903C194.312 179.567 202.918 173.355 210.682 165.129C213.568 162.071 215.573 159.093 216.723 156.166C217.865 153.249 218.117 150.373 217.523 147.695C216.935 145.016 215.505 142.571 213.535 140.437C211.564 138.292 209.06 136.442 206.222 134.825C200.543 131.598 193.503 129.251 186.014 127.536C178.523 125.822 170.58 124.759 163.075 124.304C153.936 123.77 145.515 124.138 139.139 125.671C132.551 127.277 126.661 130.345 121.954 134.121C117.261 137.903 113.731 142.405 112.083 147.104C111.262 149.451 110.926 151.855 111.221 154.229C111.522 156.601 112.479 158.943 114.21 161.056C115.934 163.17 118.41 165.03 121.564 166.496C124.725 167.968 128.549 169.066 133.064 169.76C144.393 171.485 156.932 170.309 169.561 167.252C182.196 164.18 194.955 159.202 206.721 153.073C218.488 146.938 229.248 139.659 237.82 131.925C246.384 124.184 252.794 116.004 255.661 107.906C258.205 100.674 257.358 93.115 254.238 85.9188C251.105 78.7123 245.714 71.8322 238.955 65.7758C232.183 59.7246 224.029 54.4971 215.266 50.6581C206.495 46.8294 197.096 44.379 187.785 44.0372C178.577 43.69 170.511 46.4307 164.512 50.6323C158.491 54.8391 154.36 60.4756 152.445 66.3559C150.549 72.2309 150.83 78.4221 154.23 83.7116C155.926 86.3435 158.437 88.7215 161.762 90.5762C165.073 92.431 169.171 93.747 173.938 94.3842C182.77 95.5551 192.437 94.12 201.884 91.1204C211.332 88.0999 220.588 83.4578 228.517 77.8521C236.431 72.2413 243.019 65.6669 246.952 58.6573C248.916 55.1498 250.202 51.5336 250.591 47.8759C250.982 44.2183 250.462 40.5243 248.813 36.9651C245.968 30.7895 240.481 26.0128 233.756 22.5002C227.018 18.9721 219.02 16.6252 210.675 15.0503C193.976 11.9211 175.793 11.89 162.973 12.7966C143.305 14.2213 122.187 21.2207 103.066 30.8103C83.9593 40.4156 66.8841 52.6267 55.6034 64.8431C49.9664 70.9617 45.7661 77.0803 43.5701 82.9967C41.381 88.8925 41.1825 94.695 44.042 99.8448C45.465 102.405 47.6473 104.751 50.5341 106.756C53.4279 108.761 57.0195 110.435 61.2814 111.761C69.812 114.413 81.045 115.729 95.5547 115.584C120.299 115.34 139.063 108.59 151.5 98.674C163.951 88.7684 170.115 75.868 170.553 63.3719C170.976 50.8861 165.709 38.6748 154.771 30.1835C149.304 25.9507 142.402 22.6867 134.268 20.9045C126.134 19.112 116.803 18.8065 106.48 20.3037C99.0573 21.371 92.6746 23.8473 87.366 27.2563C82.0368 30.6654 77.7545 34.9808 74.1971 39.8041C67.0962 49.4612 62.8137 61.2011 59.4001 72.5782C56.0001 83.9501 53.4895 94.9904 50.3426 102.953C48.7897 106.927 47.0385 110.113 45.2529 112.046C44.3637 113.014 43.5016 113.657 42.7491 114.03C41.983 114.403 41.3672 114.548 40.5395 114.579C35.9424 114.677 32.5357 114.134 30.0591 113.259C27.5827 112.367 25.9408 111.181 24.6957 109.616C23.4644 108.051 22.6845 106.046 22.3972 103.689C22.1099 101.337 22.3219 98.6481 22.9649 95.8247C24.2306 90.1775 27.2132 84.0122 30.7638 78.7433C32.5355 76.1062 34.4511 73.6919 36.3323 71.6766C38.2067 69.6665 40.0676 68.0449 41.6 67.0346C58.2988 55.9114 84.7665 45.1458 110.331 41.8041C123.124 40.1152 135.636 40.2653 146.643 42.923C157.664 45.5911 167.249 50.6633 174.691 59.248C185.226 71.4747 187.238 84.981 183.427 98.1403C179.61 111.279 169.821 123.962 156.891 133.852C148.449 140.317 138.886 144.25 129.171 146.021C119.464 147.788 109.579 147.39 100.514 145.068C91.4501 142.752 83.2067 138.52 76.7831 132.598C70.3663 126.671 65.7554 119.056 64.0315 109.88C62.0339 99.2595 66.4669 88.6438 75.0112 79.4789C82.4953 71.4487 93.1056 64.6203 104.865 60.1286C116.618 55.6316 129.465 53.4868 141.431 54.5798C153.122 55.6524 161.947 59.0045 168.589 63.8123C175.218 68.6304 179.678 74.9923 182.066 82.147C186.875 96.4461 183.132 113.822 172.673 126.599C166.154 134.624 154.346 144.701 141.786 149.902C135.506 152.523 129.123 153.917 123.131 153.513C117.138 153.099 111.31 151.011 105.659 146.011C101.732 142.519 98.3048 137.722 95.7942 132.292C93.2767 126.868 91.6554 120.807 91.2244 114.787C90.7865 108.766 91.539 102.787 93.6939 97.5031C95.842 92.2186 99.372 87.6441 104.496 84.2973C106.281 83.1264 107.923 82.4994 109.456 82.2196C110.988 81.945 112.459 82.002 114.012 82.3492C117.097 83.0226 120.442 84.9913 123.692 87.5765C126.955 90.1514 130.143 93.3015 133.214 96.2079C136.299 99.1143 139.228 101.782 142.244 103.461C143.784 104.315 145.83 102.228 144.304 101.358Z" fill="black"/>
</svg>
